<?xml version="1.0" encoding="UTF-8"?>
<svg version="1.1" xmlns="http://www.w3.org/2000/svg" width="32" height="64">
<path d="M0 0 C2.375 0.8125 2.375 0.8125 5 2 C6.65919896 2.36871088 8.3247643 2.71281674 10 3 C10 3.66 10 4.32 10 5 C10.99 5.33 11.98 5.66 13 6 C13 6.66 13 7.32 13 8 C13.66 8 14.32 8 15 8 C15 8.66 15 9.32 15 10 C12.08517222 10.80967438 10.53886783 11.21845993 7.6875 10.0625 C7.130625 9.711875 6.57375 9.36125 6 9 C6.495 9.515625 6.99 10.03125 7.5 10.5625 C9 13 9 13 8.9375 16.4375 C9.01306752 20.74484841 10.2130924 21.86472895 13 25 C13 25.99 13 26.98 13 28 C10.35261084 29.4606285 9.10551666 30 6 30 C6.33 30.598125 6.66 31.19625 7 31.8125 C8 34 8 34 8 37 C5.69 37 3.38 37 1 37 C0.505 35.515 0.505 35.515 0 34 C-0.556875 34.495 -1.11375 34.99 -1.6875 35.5 C-4.38162983 37.24754367 -5.85375007 37.26218749 -9 37 C-9.33 35.35 -9.66 33.7 -10 32 C-8.68 31.34 -7.36 30.68 -6 30 C-6 29.34 -6 28.68 -6 28 C-8.475 27.01 -8.475 27.01 -11 26 C-11 21.89646482 -10.44158091 20.36690831 -8.625 16.8125 C-7.96371094 15.49185547 -7.96371094 15.49185547 -7.2890625 14.14453125 C-6 12 -6 12 -4 11 C-4.99 10.67 -5.98 10.34 -7 10 C-7.33 10.99 -7.66 11.98 -8 13 C-9.32 12.67 -10.64 12.34 -12 12 C-11.67 10.02 -11.34 8.04 -11 6 C-10.34 6 -9.68 6 -9 6 C-9 5.01 -9 4.02 -9 3 C-8.071875 2.87625 -7.14375 2.7525 -6.1875 2.625 C-2.86074765 2.18466918 -2.86074765 2.18466918 0 0 Z " fill="#824974" transform="translate(14,27)"/>
<path d="M0 0 C0.99 0.33 1.98 0.66 3 1 C3.59732819 3.76264289 4 6.16032769 4 9 C5.27754554 11.0360882 6.60699818 13.04109119 8 15 C4.03302114 16.80317221 0.3177458 17.49202991 -4 18 C-4.33 19.32 -4.66 20.64 -5 22 C-5.66 22 -6.32 22 -7 22 C-7.66 22.66 -8.32 23.32 -9 24 C-11.125 23.625 -11.125 23.625 -13 23 C-11.63016497 19.83884224 -11.0109362 19.0072908 -8 17 C-9.98 15.68 -11.96 14.36 -14 13 C-13.67 12.01 -13.34 11.02 -13 10 C-11.72125 9.855625 -10.4425 9.71125 -9.125 9.5625 C-6.74307106 9.29357254 -5.15547309 9.07773654 -3 8 C-2.67 8.33 -2.34 8.66 -2 9 C-1.34 6.03 -0.68 3.06 0 0 Z " fill="#CC60BE" transform="translate(18,39)"/>
<path d="M0 0 C2.375 0.8125 2.375 0.8125 5 2 C6.65919896 2.36871088 8.3247643 2.71281674 10 3 C10 3.66 10 4.32 10 5 C10.99 5.33 11.98 5.66 13 6 C13 6.66 13 7.32 13 8 C13.66 8 14.32 8 15 8 C15 8.66 15 9.32 15 10 C11.61608307 11.06351675 10.4195366 11.21442982 7.1875 9.5625 C6.465625 9.046875 5.74375 8.53125 5 8 C4.34 9.32 3.68 10.64 3 12 C1.35 11.67 -0.3 11.34 -2 11 C-2.33 10.01 -2.66 9.02 -3 8 C-4.99983534 8.79117904 -4.99983534 8.79117904 -7 10 C-7.33 10.99 -7.66 11.98 -8 13 C-9.32 12.67 -10.64 12.34 -12 12 C-11.67 10.02 -11.34 8.04 -11 6 C-10.34 6 -9.68 6 -9 6 C-9 5.01 -9 4.02 -9 3 C-8.071875 2.87625 -7.14375 2.7525 -6.1875 2.625 C-2.86074765 2.18466918 -2.86074765 2.18466918 0 0 Z " fill="#E9CF5A" transform="translate(14,27)"/>
<path d="M0 0 C0.103125 0.556875 0.20625 1.11375 0.3125 1.6875 C0.93159772 4.12097671 0.93159772 4.12097671 2.5 6.5 C3.85331285 8.75552142 4.52643061 10.4427253 5 13 C2.35261084 14.4606285 1.10551666 15 -2 15 C-1.67 15.598125 -1.34 16.19625 -1 16.8125 C0 19 0 19 0 22 C-2.33294775 22.04241723 -4.66702567 22.04092937 -7 22 C-8 21 -8 21 -8.0625 17.9375 C-8.041875 16.968125 -8.02125 15.99875 -8 15 C-8.66 14.67 -9.32 14.34 -10 14 C-9.09507813 13.92652344 -9.09507813 13.92652344 -8.171875 13.8515625 C-7.37265625 13.77679688 -6.5734375 13.70203125 -5.75 13.625 C-4.96109375 13.55539063 -4.1721875 13.48578125 -3.359375 13.4140625 C-0.914123 12.98492887 0.84836903 12.21399362 3 11 C1.35 9.02 -0.3 7.04 -2 5 C-1.34 3.35 -0.68 1.7 0 0 Z " fill="#281A27" transform="translate(22,42)"/>
<path d="M0 0 C2.64 0 5.28 0 8 0 C7.67 2.64 7.34 5.28 7 8 C7.66 8 8.32 8 9 8 C8.67 9.32 8.34 10.64 8 12 C7.34 12 6.68 12 6 12 C5.34 12.66 4.68 13.32 4 14 C1.875 13.625 1.875 13.625 0 13 C1.36983503 9.83884224 1.9890638 9.0072908 5 7 C3.02 5.68 1.04 4.36 -1 3 C-0.67 2.01 -0.34 1.02 0 0 Z " fill="#DA68CE" transform="translate(5,49)"/>
<path d="M0 0 C0.66 0.33 1.32 0.66 2 1 C1.67 3.31 1.34 5.62 1 8 C2.32 8.66 3.64 9.32 5 10 C1.92382812 10.29296875 1.92382812 10.29296875 -1.15234375 10.5859375 C-1.76207031 10.72257812 -2.37179688 10.85921875 -3 11 C-3.33 11.66 -3.66 12.32 -4 13 C-2.824375 13.433125 -2.824375 13.433125 -1.625 13.875 C1 15 1 15 3 17 C2.175 17.61875 1.35 18.2375 0.5 18.875 C-0.325 19.57625 -1.15 20.2775 -2 21 C-2 21.66 -2 22.32 -2 23 C0.96175123 22.38722388 2.38058783 21.74627478 5 20 C3.125 23.875 3.125 23.875 2 25 C0.33382885 25.04063832 -1.33388095 25.042721 -3 25 C-3.33 23.35 -3.66 21.7 -4 20 C-2.68 19.34 -1.36 18.68 0 18 C0 17.34 0 16.68 0 16 C-2.475 15.01 -2.475 15.01 -5 14 C-5 9.83588785 -4.38740919 8.33607747 -2.5 4.75 C-2.0359375 3.85796875 -1.571875 2.9659375 -1.09375 2.046875 C-0.7328125 1.37140625 -0.371875 0.6959375 0 0 Z " fill="#4C3348" transform="translate(8,39)"/>
<path d="M0 0 C2.6875 0.875 2.6875 0.875 5 2 C3 3 3 3 -1 3 C-1.2475 3.78375 -1.495 4.5675 -1.75 5.375 C-3.19494285 8.40937999 -4.05565819 8.67029725 -7 10 C-7.33 10.99 -7.66 11.98 -8 13 C-9.32 12.67 -10.64 12.34 -12 12 C-11.67 10.02 -11.34 8.04 -11 6 C-10.34 6 -9.68 6 -9 6 C-9 5.01 -9 4.02 -9 3 C-8.071875 2.87625 -7.14375 2.7525 -6.1875 2.625 C-2.86074765 2.18466918 -2.86074765 2.18466918 0 0 Z " fill="#D8C62E" transform="translate(14,27)"/>
<path d="M0 0 C2.33294775 -0.04241723 4.66702567 -0.04092937 7 0 C8 1 8 1 8.0625 3.5625 C8.041875 4.366875 8.02125 5.17125 8 6 C5.625 6.625 5.625 6.625 3 7 C0.64046906 4.64046906 0.50858587 3.22104383 0 0 Z " fill="#E9E4CC" transform="translate(10,32)"/>
<path d="M0 0 C3 0 3 0 5.1875 1.8125 C7 4 7 4 7 7 C4.69 7 2.38 7 0 7 C-1.04449911 3.86650268 -0.93423645 3.01031744 0 0 Z " fill="#9F2CBA" transform="translate(15,57)"/>
<path d="M0 0 C0.33 0.66 0.66 1.32 1 2 C1.66 2 2.32 2 3 2 C2.67 3.32 2.34 4.64 2 6 C1.34 6 0.68 6 0 6 C-0.66 6.66 -1.32 7.32 -2 8 C-4.125 7.625 -4.125 7.625 -6 7 C-4.60667426 3.63279613 -3.0210714 2.0140476 0 0 Z " fill="#B923E1" transform="translate(11,55)"/>
<path d="M0 0 C0.99 0.33 1.98 0.66 3 1 C3.33 2.65 3.66 4.3 4 6 C0.25 9 0.25 9 -2 9 C-1.34 6.03 -0.68 3.06 0 0 Z " fill="#F1D9C5" transform="translate(18,39)"/>
<path d="M0 0 C0.99 0 1.98 0 3 0 C2.4739075 3.78786597 1.61896089 6.17152224 -1 9 C-1.66 9 -2.32 9 -3 9 C-2.67 7.02 -2.34 5.04 -2 3 C-1.34 3 -0.68 3 0 3 C0 2.01 0 1.02 0 0 Z " fill="#EFD464" transform="translate(5,30)"/>
<path d="M0 0 C0.33 0.66 0.66 1.32 1 2 C1.99 2 2.98 2 4 2 C3.67 3.98 3.34 5.96 3 8 C2.34 7.67 1.68 7.34 1 7 C0.01 7.33 -0.98 7.66 -2 8 C-1.125 1.125 -1.125 1.125 0 0 Z " fill="#DE70D3" transform="translate(14,47)"/>
<path d="M0 0 C0.33 0 0.66 0 1 0 C1.66 2.97 2.32 5.94 3 9 C1.35 8.67 -0.3 8.34 -2 8 C-1.125 1.125 -1.125 1.125 0 0 Z " fill="#F5E4C4" transform="translate(10,39)"/>
<path d="M0 0 C2.31 0.33 4.62 0.66 7 1 C6.67 2.32 6.34 3.64 6 5 C4.02 4.34 2.04 3.68 0 3 C-0.33 3.66 -0.66 4.32 -1 5 C-0.67 3.35 -0.34 1.7 0 0 Z " fill="#EDD754" transform="translate(13,29)"/>
<path d="M0 0 C4.875 4.75 4.875 4.75 6 7 C1.25 6.25 1.25 6.25 -1 4 C-0.625 1.875 -0.625 1.875 0 0 Z " fill="#DB72D0" transform="translate(20,47)"/>
<path d="M0 0 C0.66 0.33 1.32 0.66 2 1 C1.67 3.31 1.34 5.62 1 8 C2.32 8.66 3.64 9.32 5 10 C2.6875 10.625 2.6875 10.625 0 11 C-0.99 10.34 -1.98 9.68 -3 9 C-2.01 6.03 -1.02 3.06 0 0 Z " fill="#704265" transform="translate(8,39)"/>
<path d="M0 0 C1.125 3.75 1.125 3.75 0 6 C-2.4375 5.625 -2.4375 5.625 -5 5 C-5.33 4.34 -5.66 3.68 -6 3 C-4.0625 2.4375 -4.0625 2.4375 -2 2 C-1.67 2.33 -1.34 2.66 -1 3 C-0.67 2.01 -0.34 1.02 0 0 Z " fill="#D157C3" transform="translate(12,49)"/>
<path d="M0 0 C0.99 0.33 1.98 0.66 3 1 C3 1.66 3 2.32 3 3 C2.360625 3.268125 1.72125 3.53625 1.0625 3.8125 C-1.33131686 4.88667752 -1.33131686 4.88667752 -2 8 C-2.66 8 -3.32 8 -4 8 C-2.87548273 5.0280615 -1.77706209 2.66559313 0 0 Z " fill="#C7B527" transform="translate(8,32)"/>
<path d="" fill="#CC97BE" transform="translate(0,0)"/>
</svg>
