<?xml version="1.0" encoding="UTF-8"?>
<svg version="1.1" xmlns="http://www.w3.org/2000/svg" width="32" height="64">
<path d="M0 0 C1.27617187 0.02320312 2.55234375 0.04640625 3.8671875 0.0703125 C5.78917969 0.09738281 5.78917969 0.09738281 7.75 0.125 C9.23113281 0.15980469 9.23113281 0.15980469 10.7421875 0.1953125 C13.54474739 5.28567638 13.55566121 7.50099651 12.7421875 13.1953125 C13.1959375 14.1028125 13.6496875 15.0103125 14.1171875 15.9453125 C16.38620665 20.4833508 16.90905372 25.13370368 16.7421875 30.1953125 C16.0821875 31.1853125 15.4221875 32.1753125 14.7421875 33.1953125 C13.50198114 38.56954006 14.13368593 41.99133682 15.7421875 47.1953125 C15.8671875 50.6328125 15.8671875 50.6328125 15.7421875 53.1953125 C14.4221875 53.1953125 13.1021875 53.1953125 11.7421875 53.1953125 C12.04253906 53.82179687 12.34289062 54.44828125 12.65234375 55.09375 C13.03261719 55.91101562 13.41289062 56.72828125 13.8046875 57.5703125 C14.18753906 58.38242187 14.57039063 59.19453125 14.96484375 60.03125 C15.22136719 60.74539062 15.47789063 61.45953125 15.7421875 62.1953125 C15.4121875 62.8553125 15.0821875 63.5153125 14.7421875 64.1953125 C13.4840625 64.2365625 12.2259375 64.2778125 10.9296875 64.3203125 C10.22199219 64.34351562 9.51429687 64.36671875 8.78515625 64.390625 C6.7421875 64.1953125 6.7421875 64.1953125 3.7421875 62.1953125 C3.484375 60.1015625 3.484375 60.1015625 3.6171875 57.6953125 C3.84963402 54.31394092 3.84963402 54.31394092 2.7421875 51.1953125 C2.0821875 51.8553125 1.4221875 52.5153125 0.7421875 53.1953125 C1.03703904 55.04797323 1.03703904 55.04797323 1.7421875 57.1953125 C2.13232466 59.185012 2.47421399 61.18551119 2.7421875 63.1953125 C2.2471875 63.6903125 2.2471875 63.6903125 1.7421875 64.1953125 C-0.25390625 64.1796875 -0.25390625 64.1796875 -2.6953125 63.9453125 C-3.49839844 63.87828125 -4.30148438 63.81125 -5.12890625 63.7421875 C-7.2578125 63.1953125 -7.2578125 63.1953125 -9.2578125 60.1953125 C-9.70703125 57.19921875 -9.70703125 57.19921875 -9.9453125 53.7578125 C-10.03167969 52.62472656 -10.11804688 51.49164063 -10.20703125 50.32421875 C-10.25037813 47.65338417 -10.07914092 45.70870096 -9.2578125 43.1953125 C-9.9178125 43.1953125 -10.5778125 43.1953125 -11.2578125 43.1953125 C-11.2578125 42.5353125 -11.2578125 41.8753125 -11.2578125 41.1953125 C-10.2678125 41.1953125 -9.2778125 41.1953125 -8.2578125 41.1953125 C-7.09132433 35.04473853 -7.39239939 32.81593052 -10.2578125 27.1953125 C-10.81053606 23.53922363 -11.06734063 19.886526 -11.2578125 16.1953125 C-9.2778125 15.2053125 -7.2978125 14.2153125 -5.2578125 13.1953125 C-5.5878125 12.5353125 -5.9178125 11.8753125 -6.2578125 11.1953125 C-6.20703125 9.1015625 -6.20703125 9.1015625 -5.9453125 6.6953125 C-5.86667969 5.90125 -5.78804688 5.1071875 -5.70703125 4.2890625 C-4.91367991 0.59135538 -3.67048109 0.22005282 0 0 Z M-6.2578125 19.1953125 C-6.5878125 20.1853125 -6.9178125 21.1753125 -7.2578125 22.1953125 C-6.9278125 22.8553125 -6.5978125 23.5153125 -6.2578125 24.1953125 C-5.5978125 24.1953125 -4.9378125 24.1953125 -4.2578125 24.1953125 C-4.2578125 22.5453125 -4.2578125 20.8953125 -4.2578125 19.1953125 C-4.9178125 19.1953125 -5.5778125 19.1953125 -6.2578125 19.1953125 Z " fill="#8A7154" transform="translate(12.2578125,-0.1953125)"/>
<path d="M0 0 C0.66 0 1.32 0 2 0 C3.11328125 1.57421875 3.11328125 1.57421875 4.3125 3.6875 C5.93700625 6.41918462 7.50229983 8.68949814 9.8125 10.875 C10.534375 11.57625 11.25625 12.2775 12 13 C12 13.66 12 14.32 12 15 C13.32 15.33 14.64 15.66 16 16 C16 15.34 16 14.68 16 14 C18.64 14 21.28 14 24 14 C24.22786458 16.05078125 24.45572917 18.1015625 24.68359375 20.15234375 C24.81886614 22.01140229 24.81886614 22.01140229 26 23 C26.04080783 24.99958364 26.04254356 27.00045254 26 29 C24.68 29 23.36 29 22 29 C22.30035156 29.62648438 22.60070312 30.25296875 22.91015625 30.8984375 C23.29042969 31.71570313 23.67070312 32.53296875 24.0625 33.375 C24.44535156 34.18710937 24.82820313 34.99921875 25.22265625 35.8359375 C25.47917969 36.55007812 25.73570313 37.26421875 26 38 C25.67 38.66 25.34 39.32 25 40 C23.741875 40.04125 22.48375 40.0825 21.1875 40.125 C20.47980469 40.14820313 19.77210937 40.17140625 19.04296875 40.1953125 C17 40 17 40 14 38 C13.7421875 35.90625 13.7421875 35.90625 13.875 33.5 C14.10744652 30.11862842 14.10744652 30.11862842 13 27 C12.34 27.66 11.68 28.32 11 29 C11.29485154 30.85266073 11.29485154 30.85266073 12 33 C12.39013716 34.9896995 12.73202649 36.99019869 13 39 C12.505 39.495 12.505 39.495 12 40 C10.00390625 39.984375 10.00390625 39.984375 7.5625 39.75 C6.75941406 39.68296875 5.95632812 39.6159375 5.12890625 39.546875 C3 39 3 39 1 36 C0.55078125 33.00390625 0.55078125 33.00390625 0.3125 29.5625 C0.22613281 28.42941406 0.13976562 27.29632813 0.05078125 26.12890625 C0.00743437 23.45807167 0.17867158 21.51338846 1 19 C0.34 19 -0.32 19 -1 19 C-1 18.34 -1 17.68 -1 17 C-0.01 17 0.98 17 2 17 C3.12705335 11.05735506 3.12542078 8.37572375 0 3 C0 2.01 0 1.02 0 0 Z " fill="#03030F" transform="translate(2,24)"/>
<path d="M0 0 C1.21236328 0.04060547 1.21236328 0.04060547 2.44921875 0.08203125 C3.06410156 0.11683594 3.67898437 0.15164063 4.3125 0.1875 C4.93394538 1.50350198 5.50791698 2.8419543 6.0625 4.1875 C6.38734375 4.93 6.7121875 5.6725 7.046875 6.4375 C7.34694553 9.54411254 6.90915777 10.25911715 5.4375 12.90625 C2.91796668 17.49270587 2.65495798 21.52666364 2.5625 26.6875 C2.53285156 27.50992187 2.50320312 28.33234375 2.47265625 29.1796875 C2.40281563 31.18178533 2.35529612 33.18464156 2.3125 35.1875 C-1.13082626 32.64544706 -3.43864313 30.4775403 -5.4375 26.6875 C-5.84484375 25.9346875 -6.2521875 25.181875 -6.671875 24.40625 C-7.63660512 22.29868573 -8.32676995 20.47528795 -8.6875 18.1875 C-8.04846883 16.51004318 -7.38408363 14.84188613 -6.6875 13.1875 C-7.0175 12.5275 -7.3475 11.8675 -7.6875 11.1875 C-8.15329547 3.85122134 -8.15329547 3.85122134 -6.46484375 1.4453125 C-4.16518563 -0.18213786 -2.78816166 -0.12122442 0 0 Z " fill="#0E0D16" transform="translate(16.6875,-0.1875)"/>
<path d="M0 0 C0.99 0.33 1.98 0.66 3 1 C2.34 1.66 1.68 2.32 1 3 C0.8028583 7.13997567 0.69234522 10.07703567 2 14 C-0.33333333 18.66666667 -0.33333333 18.66666667 -3 20 C-3 21.32 -3 22.64 -3 24 C-2.34 24 -1.68 24 -1 24 C-1.33 23.01 -1.66 22.02 -2 21 C1.21365891 22.10815825 1.9914224 22.98529554 3.75 26 C5 29 5 29 5 31 C5.99 31.33 6.98 31.66 8 32 C8 33.32 8 34.64 8 36 C4.88630052 36.32210684 3.49665291 36.40279724 1.015625 34.390625 C0.14164063 33.33101562 0.14164063 33.33101562 -0.75 32.25 C-1.34296875 31.55390625 -1.9359375 30.8578125 -2.546875 30.140625 C-3.97721928 28.0335587 -4.57406858 26.48833621 -5 24 C-5.66 24 -6.32 24 -7 24 C-7.33 21.36 -7.66 18.72 -8 16 C-6.02 15.01 -4.04 14.02 -2 13 C-2.33 12.34 -2.66 11.68 -3 11 C-2.94921875 8.90625 -2.94921875 8.90625 -2.6875 6.5 C-2.60886719 5.7059375 -2.53023438 4.911875 -2.44921875 4.09375 C-2 2 -2 2 0 0 Z " fill="#F1C791" transform="translate(9,0)"/>
<path d="M0 0 C0.66 0 1.32 0 2 0 C3.11328125 1.5390625 3.11328125 1.5390625 4.3125 3.625 C6.58310266 7.42285326 9.08890976 10.67303973 12 14 C9.23723823 13.47731534 6.6739124 12.89130413 4 12 C4.33 12.66 4.66 13.32 5 14 C6.9914056 14.38133299 8.99279077 14.71325582 11 15 C11.66 15.33 12.32 15.66 13 16 C12.67 17.32 12.34 18.64 12 20 C11.34 20 10.68 20 10 20 C10 21.32 10 22.64 10 24 C7.36 24 4.72 24 2 24 C2 22.35 2 20.7 2 19 C1.01 19 0.02 19 -1 19 C-1 18.34 -1 17.68 -1 17 C-0.01 17 0.98 17 2 17 C3.12705335 11.05735506 3.12542078 8.37572375 0 3 C0 2.01 0 1.02 0 0 Z " fill="#17227D" transform="translate(2,24)"/>
<path d="M0 0 C0.66 0.33 1.32 0.66 2 1 C2 2.98 2 4.96 2 7 C0.68 7 -0.64 7 -2 7 C-1.69964844 7.62648438 -1.39929687 8.25296875 -1.08984375 8.8984375 C-0.70957031 9.71570312 -0.32929688 10.53296875 0.0625 11.375 C0.44535156 12.18710937 0.82820313 12.99921875 1.22265625 13.8359375 C1.60744141 14.90714844 1.60744141 14.90714844 2 16 C1.67 16.66 1.34 17.32 1 18 C-0.258125 18.04125 -1.51625 18.0825 -2.8125 18.125 C-3.52019531 18.14820312 -4.22789063 18.17140625 -4.95703125 18.1953125 C-7 18 -7 18 -10 16 C-9.67 12.04 -9.34 8.08 -9 4 C-6.03 4 -3.06 4 0 4 C0 2.68 0 1.36 0 0 Z " fill="#2F2015" transform="translate(26,46)"/>
<path d="M0 0 C2 2 2 2 2.375 4.3125 C1.8869194 7.81041099 0.34685877 9.43312323 -2 12 C-5.09998746 11.66785849 -6.0545012 10.9454988 -8.3125 8.6875 C-10 6 -10 6 -9.9375 3.8125 C-7.71167636 -0.49075904 -4.31903156 -0.36757715 0 0 Z " fill="#D9BA97" transform="translate(20,4)"/>
<path d="M0 0 C3 1 3 1 4.25 3.125 C5 6 5 6 4.4375 9.4375 C3.67001106 12.97355546 3.67001106 12.97355546 5.375 15.75 C7.62462281 20.24924562 8.36327311 24.96945715 8 30 C6.5078125 31.83203125 6.5078125 31.83203125 5 33 C4.98582031 32.19175781 4.97164062 31.38351563 4.95703125 30.55078125 C4.91384796 23.51070878 4.91384796 23.51070878 1.4375 17.75 C0.633125 17.1725 -0.17125 16.595 -1 16 C-0.690625 15.443125 -0.38125 14.88625 -0.0625 14.3125 C2.41152179 8.92786433 1.87073134 5.61219403 0 0 Z " fill="#F3F3F3" transform="translate(21,0)"/>
<path d="M0 0 C0.99 0.33 1.98 0.66 3 1 C2.34 1.66 1.68 2.32 1 3 C0.8028583 7.13997567 0.69234522 10.07703567 2 14 C0.404772 17.190456 -1.43654225 19.55306306 -4 22 C-4.33 22.66 -4.66 23.32 -5 24 C-5.66 24 -6.32 24 -7 24 C-7.33 21.36 -7.66 18.72 -8 16 C-6.02 15.01 -4.04 14.02 -2 13 C-2.33 12.34 -2.66 11.68 -3 11 C-2.94921875 8.90625 -2.94921875 8.90625 -2.6875 6.5 C-2.60886719 5.7059375 -2.53023438 4.911875 -2.44921875 4.09375 C-2 2 -2 2 0 0 Z " fill="#020419" transform="translate(9,0)"/>
<path d="M0 0 C2.31 0 4.62 0 7 0 C7.1953125 2.01822917 7.390625 4.03645833 7.5859375 6.0546875 C7.86374749 8.22668245 7.86374749 8.22668245 10 10 C10 10.99 10 11.98 10 13 C8.02 13 6.04 13 4 13 C4 12.34 4 11.68 4 11 C3.01 10.67 2.02 10.34 1 10 C0.67 6.7 0.34 3.4 0 0 Z " fill="#8C6643" transform="translate(3,49)"/>
<path d="M0 0 C2.64 0 5.28 0 8 0 C8.33 2.97 8.66 5.94 9 9 C2.84765625 8.4140625 2.84765625 8.4140625 1 8 C-0.35439668 5.29120665 -0.06501451 2.99066732 0 0 Z " fill="#000C72" transform="translate(16,40)"/>
<path d="M0 0 C0.75059087 2.33517159 1.09210304 3.66228886 0.4375 6.0625 C0.293125 6.701875 0.14875 7.34125 0 8 C0.99 9.485 0.99 9.485 2 11 C1.625 13.6875 1.625 13.6875 1 16 C-0.45945288 15.91291331 -1.91765868 15.80473093 -3.375 15.6875 C-4.18710938 15.62949219 -4.99921875 15.57148437 -5.8359375 15.51171875 C-8 15 -8 15 -10 12 C-10.125 8.8125 -10.125 8.8125 -10 6 C-9.67 6 -9.34 6 -9 6 C-8.87625 6.804375 -8.7525 7.60875 -8.625 8.4375 C-8.41875 9.283125 -8.2125 10.12875 -8 11 C-7.34 11.33 -6.68 11.66 -6 12 C-6 12.66 -6 13.32 -6 14 C-4.02 14 -2.04 14 0 14 C-0.45052734 13.22076172 -0.45052734 13.22076172 -0.91015625 12.42578125 C-4.05488851 6.65866209 -4.05488851 6.65866209 -3.75 3 C-3.5025 2.34 -3.255 1.68 -3 1 C-2.01 0.67 -1.02 0.34 0 0 Z " fill="#080604" transform="translate(13,48)"/>
<path d="M0 0 C4 2 4 2 5 4 C5.07065617 6.04055005 5.08421976 8.08334257 5.0625 10.125 C5.05347656 11.22070312 5.04445313 12.31640625 5.03515625 13.4453125 C5.02355469 14.28835937 5.01195312 15.13140625 5 16 C4.01 15.34 3.02 14.68 2 14 C1.67 15.32 1.34 16.64 1 18 C1.99 18.33 2.98 18.66 4 19 C2.68 19 1.36 19 0 19 C0 12.73 0 6.46 0 0 Z " fill="#262427" transform="translate(21,17)"/>
<path d="M0 0 C1.32 0 2.64 0 4 0 C4 4.62 4 9.24 4 14 C3.34 14 2.68 14 2 14 C-0.40920141 9.78389753 -1.44250802 6.86758823 -1 2 C-0.67 1.34 -0.34 0.68 0 0 Z " fill="#BCBBBA" transform="translate(14,17)"/>
<path d="M0 0 C0.66 0.33 1.32 0.66 2 1 C2 2.98 2 4.96 2 7 C0.68 7 -0.64 7 -2 7 C-1.79375 7.5775 -1.5875 8.155 -1.375 8.75 C-0.91338739 11.51967567 -1.57055055 12.64561267 -3 15 C-3.33 14.01 -3.66 13.02 -4 12 C-4.99 12.495 -4.99 12.495 -6 13 C-6 13.66 -6 14.32 -6 15 C-5.34 15.33 -4.68 15.66 -4 16 C-4.99 16 -5.98 16 -7 16 C-7.33 14.35 -7.66 12.7 -8 11 C-7.01 11 -6.02 11 -5 11 C-4.34 9.35 -3.68 7.7 -3 6 C-4.32 5.67 -5.64 5.34 -7 5 C-3.535 4.505 -3.535 4.505 0 4 C0 2.68 0 1.36 0 0 Z " fill="#7C6D5D" transform="translate(26,46)"/>
<path d="M0 0 C1.1875 3.1875 1.1875 3.1875 2 7 C0.625 9.9375 0.625 9.9375 -1 12 C-1 10.12488426 -0.98213296 8.24958447 -0.9375 6.375 C-0.72620721 4.04437265 -0.72620721 4.04437265 -2 3 C-5.94836905 2.7367754 -8.60379269 2.91002627 -12 5 C-11.6875 3.125 -11.6875 3.125 -11 1 C-6.8204355 -1.78637633 -4.85331323 -0.79562512 0 0 Z " fill="#7D6635" transform="translate(22,2)"/>
<path d="M0 0 C0.66 0 1.32 0 2 0 C3.11328125 1.5390625 3.11328125 1.5390625 4.3125 3.625 C6.58310266 7.42285326 9.08890976 10.67303973 12 14 C9.23723823 13.47731534 6.6739124 12.89130413 4 12 C2.83203125 10.0390625 2.83203125 10.0390625 1.8125 7.625 C1.46832031 6.83351563 1.12414062 6.04203125 0.76953125 5.2265625 C0 3 0 3 0 0 Z " fill="#383230" transform="translate(2,24)"/>
<path d="M0 0 C0.99 0.33 1.98 0.66 3 1 C2.34 1.66 1.68 2.32 1 3 C0.8028583 7.13997567 0.69234522 10.07703567 2 14 C1.01 14 0.02 14 -1 14 C-3.19398856 10.70901716 -3.21503664 10.15167419 -2.75 6.4375 C-2.66234375 5.65246094 -2.5746875 4.86742187 -2.484375 4.05859375 C-2 2 -2 2 0 0 Z " fill="#F4F4F7" transform="translate(9,0)"/>
<path d="M0 0 C0.66 0 1.32 0 2 0 C2.47970123 1.74985354 2.95873924 3.49988891 3.4375 5.25 C3.83775391 6.71179688 3.83775391 6.71179688 4.24609375 8.203125 C4.85544584 10.46372653 5.44238255 12.72622009 6 15 C5.34 15 4.68 15 4 15 C3.12855131 13.4470724 2.27846343 11.88214564 1.4375 10.3125 C0.72400391 9.00732422 0.72400391 9.00732422 -0.00390625 7.67578125 C-1.14268368 4.61671247 -0.92718689 3.08136961 0 0 Z " fill="#34251F" transform="translate(10,16)"/>
<path d="M0 0 C0.78375 0.185625 1.5675 0.37125 2.375 0.5625 C4.97089775 1.25962266 4.97089775 1.25962266 7 0 C6.67 6.93 6.34 13.86 6 21 C5.01 19.68 4.02 18.36 3 17 C3.66 17 4.32 17 5 17 C5 12.38 5 7.76 5 3 C3.35 3 1.7 3 0 3 C0 2.01 0 1.02 0 0 Z " fill="#242323" transform="translate(13,14)"/>
<path d="M0 0 C2.31 0 4.62 0 7 0 C7 0.99 7 1.98 7 3 C5.35 3 3.7 3 2 3 C2 5.31 2 7.62 2 10 C1.67 10 1.34 10 1 10 C0.67 6.7 0.34 3.4 0 0 Z " fill="#644F39" transform="translate(3,49)"/>
<path d="M0 0 C1.32 0.66 2.64 1.32 4 2 C4 2.66 4 3.32 4 4 C0.53846154 7 0.53846154 7 -2 7 C-2.33 5.02 -2.66 3.04 -3 1 C-2.34 1 -1.68 1 -1 1 C-1 1.66 -1 2.32 -1 3 C-0.34 3 0.32 3 1 3 C0.67 2.01 0.34 1.02 0 0 Z " fill="#BCB9B4" transform="translate(7,21)"/>
<path d="M0 0 C0.66 0.33 1.32 0.66 2 1 C2 1.99 2 2.98 2 4 C-1.08809695 5.76462683 -2.23312136 6 -6 6 C-4.98545548 3.4636387 -4.3146444 2.20648539 -2 0.6875 C-1.34 0.460625 -0.68 0.23375 0 0 Z " fill="#FBD39F" transform="translate(20,5)"/>
<path d="M0 0 C0.66 0 1.32 0 2 0 C3.0625 2.375 3.0625 2.375 4 5 C3.67 5.66 3.34 6.32 3 7 C1.02 7 -0.96 7 -3 7 C-2.01 6.67 -1.02 6.34 0 6 C0 4.02 0 2.04 0 0 Z " fill="#000000" transform="translate(24,57)"/>
<path d="M0 0 C0.33 0.66 0.66 1.32 1 2 C0.67 2.99 0.34 3.98 0 5 C1.65 4.67 3.3 4.34 5 4 C5 4.99 5 5.98 5 7 C3.02 7 1.04 7 -1 7 C-1 6.34 -1 5.68 -1 5 C-1.66 4.67 -2.32 4.34 -3 4 C-2.34 4 -1.68 4 -1 4 C-0.67 2.68 -0.34 1.36 0 0 Z " fill="#604631" transform="translate(8,55)"/>
<path d="M0 0 C1.32 0 2.64 0 4 0 C4 1.65 4 3.3 4 5 C2.35 5 0.7 5 -1 5 C-0.67 3.35 -0.34 1.7 0 0 Z " fill="#5B3B25" transform="translate(19,52)"/>
<path d="M0 0 C0.66 0.33 1.32 0.66 2 1 C2.36923077 6.53846154 2.36923077 6.53846154 0.5 8.875 C-0.2425 9.431875 -0.2425 9.431875 -1 10 C-1.125 3.375 -1.125 3.375 0 0 Z " fill="#FCFCFC" transform="translate(27,23)"/>
<path d="M0 0 C0.66 0.66 1.32 1.32 2 2 C1.625 4.625 1.625 4.625 1 7 C-0.9375 6.6875 -0.9375 6.6875 -3 6 C-3.33 5.01 -3.66 4.02 -4 3 C-2.68 3 -1.36 3 0 3 C0 2.01 0 1.02 0 0 Z " fill="#A88732" transform="translate(17,33)"/>
<path d="M0 0 C-1.24976756 3.65316671 -1.67098753 4.78065836 -5 7 C-5.66 6.01 -6.32 5.02 -7 4 C-6.01 4 -5.02 4 -4 4 C-4 3.01 -4 2.02 -4 1 C-2 0 -2 0 0 0 Z " fill="#B1AAA3" transform="translate(22,9)"/>
<path d="M0 0 C0 2 0 2 -1.875 4.125 C-4 6 -4 6 -6 6 C-5.625 3.5625 -5.625 3.5625 -5 1 C-3 0 -3 0 0 0 Z " fill="#F5F5F5" transform="translate(7,14)"/>
<path d="M0 0 C1.32 0 2.64 0 4 0 C4 1.98 4 3.96 4 6 C3.67 5.01 3.34 4.02 3 3 C2.34 3 1.68 3 1 3 C0.67 3.66 0.34 4.32 0 5 C0 3.35 0 1.7 0 0 Z " fill="#E1E0DF" transform="translate(14,17)"/>
<path d="M0 0 C1.98 0 3.96 0 6 0 C6 0.66 6 1.32 6 2 C5.01 2.495 5.01 2.495 4 3 C4.33 3.66 4.66 4.32 5 5 C3.0625 4.1875 3.0625 4.1875 1 3 C0.67 2.01 0.34 1.02 0 0 Z " fill="#CDBEAA" transform="translate(12,11)"/>
<path d="M0 0 C1 4 1 4 1 4 Z " fill="#FEFEFE" transform="translate(28,39)"/>
</svg>
