<?xml version="1.0" encoding="UTF-8"?>
<svg version="1.1" xmlns="http://www.w3.org/2000/svg" width="32" height="64">
<path d="M0 0 C0.33 2.31 0.66 4.62 1 7 C1.99 7.33 2.98 7.66 4 8 C4.625 11.375 4.625 11.375 5 15 C4.34 15.66 3.68 16.32 3 17 C1.10515374 22.11608489 1.739862 27.80193076 3 33 C-0.37462715 32.45276317 -2.08235 31.9451 -5 30 C-5.391875 30.495 -5.78375 30.99 -6.1875 31.5 C-8.55091715 33.45593143 -10.01435003 33.24207973 -13 33 C-12.125 28.125 -12.125 28.125 -11 27 C-10.78318372 21.85334239 -10.78318372 21.85334239 -11.5625 16.8125 C-12.17087221 14.29210083 -11.71405849 12.4667475 -11 10 C-10.34 9.34 -9.68 8.68 -9 8 C-8.95834237 6.00043389 -8.95834237 3.99956611 -9 2 C-8 0 -8 0 -6.1875 -0.6875 C-3.81180233 -1.02688538 -2.26664171 -0.72856341 0 0 Z " fill="#17130E" transform="translate(21,30)"/>
<path d="M0 0 C0.33 1.32 0.66 2.64 1 4 C0.01 4.495 0.01 4.495 -1 5 C-0.79375 6.19625 -0.5875 7.3925 -0.375 8.625 C0.13581838 12.5576018 -0.43265283 15.3121243 -2 19 C-6.402746 20.30892449 -6.402746 20.30892449 -8.8125 19.0625 C-10.73249509 15.72777168 -10.24553945 12.80586153 -10 9 C-9.67 8.67 -9.34 8.34 -9 8 C-9 7.030625 -9 6.06125 -9 5.0625 C-9 2 -9 2 -8 0 C-5.00463263 -1.13617383 -3.02121511 -0.97110486 0 0 Z " fill="#4D855B" transform="translate(21,30)"/>
<path d="M0 0 C0.33 1.32 0.66 2.64 1 4 C0.01 4.495 0.01 4.495 -1 5 C-1.65555119 7.52733235 -1.65555119 7.52733235 -2 10 C-4.4375 9.625 -4.4375 9.625 -7 9 C-8.4783226 6.04335481 -8.06032783 3.25770263 -8 0 C-4.94736336 -0.98120464 -3.05263664 -0.98120464 0 0 Z " fill="#C8C51C" transform="translate(21,30)"/>
<path d="M0 0 C1.32 0.66 2.64 1.32 4 2 C4.125 4.375 4.125 4.375 4 7 C3.34 7.66 2.68 8.32 2 9 C0.10515374 14.11608489 0.739862 19.80193076 2 25 C-0.99332739 24.0022242 -1.94766315 23.2477975 -4 21 C-3.67 20.34 -3.34 19.68 -3 19 C-2.67 19 -2.34 19 -2 19 C-1.96261719 18.35933594 -1.92523437 17.71867187 -1.88671875 17.05859375 C-1.45662723 11.39993859 -0.53913094 7.07826187 2 2 C1.34 2 0.68 2 0 2 C0 1.34 0 0.68 0 0 Z " fill="#2A1C13" transform="translate(22,38)"/>
<path d="M0 0 C1.32 0.33 2.64 0.66 4 1 C3.01 1.66 2.02 2.32 1 3 C1.66 3 2.32 3 3 3 C2.125 8.875 2.125 8.875 1 10 C0.76712992 11.68183948 0.58735834 13.3712416 0.4375 15.0625 C0.31181641 16.44115234 0.31181641 16.44115234 0.18359375 17.84765625 C0.12300781 18.55792969 0.06242187 19.26820312 0 20 C-0.99 20 -1.98 20 -3 20 C-3 18.35 -3 16.7 -3 15 C-3.66 14.67 -4.32 14.34 -5 14 C-4.01 13.67 -3.02 13.34 -2 13 C-1.19045234 11.0326835 -1.19045234 11.0326835 -0.8125 8.6875 C-0.65394531 7.90761719 -0.49539062 7.12773438 -0.33203125 6.32421875 C0.0942809 3.73133625 0.0942809 3.73133625 0 0 Z " fill="#256E99" transform="translate(21,37)"/>
<path d="M0 0 C2.0625 0.4375 2.0625 0.4375 4 1 C3.67 2.65 3.34 4.3 3 6 C1.35 5.67 -0.3 5.34 -2 5 C-1.125 1.125 -1.125 1.125 0 0 Z " fill="#EDE5CE" transform="translate(16,34)"/>
<path d="M0 0 C0.33 0 0.66 0 1 0 C1.144375 1.093125 1.28875 2.18625 1.4375 3.3125 C1.88288104 6.93122987 1.88288104 6.93122987 3 10 C2.83988879 12.70123106 2.39559392 15.31875231 2 18 C1.34 17.67 0.68 17.34 0 17 C0.020625 15.7625 0.04125 14.525 0.0625 13.25 C0.07066821 10.92614521 0.01789664 9.06959805 -0.5625 6.8125 C-1.15783239 4.34612296 -0.6074872 2.42994879 0 0 Z " fill="#040505" transform="translate(10,40)"/>
<path d="M0 0 C1.32 0.66 2.64 1.32 4 2 C4.125 4.375 4.125 4.375 4 7 C3.34 7.66 2.68 8.32 2 9 C1.30251417 10.31747324 0.63040043 11.64914193 0 13 C-0.95465783 10.83032311 -1.14401212 9.43671207 -0.3984375 7.17578125 C0.35870385 5.4315257 1.17609198 3.71372869 2 2 C1.34 2 0.68 2 0 2 C0 1.34 0 0.68 0 0 Z " fill="#151815" transform="translate(22,38)"/>
<path d="M0 0 C1.98 0.495 1.98 0.495 4 1 C3.01 1.66 2.02 2.32 1 3 C1.66 3 2.32 3 3 3 C2.6875 5.875 2.6875 5.875 2 9 C1.01 9.66 0.02 10.32 -1 11 C-0.835 9.9275 -0.67 8.855 -0.5 7.75 C0.08810915 3.96971248 0.08810915 3.96971248 0 0 Z " fill="#B3C5A1" transform="translate(21,37)"/>
<path d="M0 0 C0.66 0 1.32 0 2 0 C2.08153933 1.58246707 2.13943557 3.16616273 2.1875 4.75 C2.23970703 6.07257812 2.23970703 6.07257812 2.29296875 7.421875 C1.94923684 10.44671583 0.99772541 11.75583602 -1 14 C-0.814375 13.154375 -0.62875 12.30875 -0.4375 11.4375 C0.03454949 7.72853974 -0.42361398 4.67446088 -1 1 C-0.67 0.67 -0.34 0.34 0 0 Z " fill="#2B3536" transform="translate(20,34)"/>
<path d="M0 0 C1.485 0.99 1.485 0.99 3 2 C2.67 4.31 2.34 6.62 2 9 C1.34 8.67 0.68 8.34 0 8 C0 5.36 0 2.72 0 0 Z " fill="#2575A4" transform="translate(12,50)"/>
</svg>
