<?xml version="1.0" encoding="UTF-8"?>
<svg version="1.1" xmlns="http://www.w3.org/2000/svg" width="32" height="64">
<path d="M0 0 C3.47974554 3.85257542 4.08016278 9.032879 5 14 C5.66 13.67 6.32 13.34 7 13 C7.68707555 15.49064888 8 17.37886292 8 20 C8.185625 20.825 8.37125 21.65 8.5625 22.5 C9 25 9 25 8 28 C8.185625 29.155 8.37125 30.31 8.5625 31.5 C9 35 9 35 7 38 C7.99 39.3921875 7.99 39.3921875 9 40.8125 C11.83095472 45.6570211 11.35445159 50.55522975 11 56 C4.25 60 4.25 60 2 60 C2 60.99 2 61.98 2 63 C-2.95 63 -7.9 63 -13 63 C-12.67 61.68 -12.34 60.36 -12 59 C-12.556875 58.896875 -13.11375 58.79375 -13.6875 58.6875 C-18.6612529 57.20881671 -18.6612529 57.20881671 -21 55 C-21.58532996 50.71408399 -21.97028355 45.94056711 -20 42 C-19.34 42 -18.68 42 -18 42 C-17.09624347 35.67370431 -17.09624347 30.32629569 -18 24 C-18.99 24 -19.98 24 -21 24 C-21 21.36 -21 18.72 -21 16 C-17.25 14.875 -17.25 14.875 -15 16 C-14.95101563 15.38511719 -14.90203125 14.77023437 -14.8515625 14.13671875 C-14.77679687 13.32847656 -14.70203125 12.52023437 -14.625 11.6875 C-14.55539063 10.88699219 -14.48578125 10.08648437 -14.4140625 9.26171875 C-14 7 -14 7 -12 4 C-11.34 4 -10.68 4 -10 4 C-10 3.34 -10 2.68 -10 2 C-6.60929907 -0.08658519 -3.95063669 -0.5883927 0 0 Z " fill="#F06478" transform="translate(21,1)"/>
<path d="M0 0 C3.47974554 3.85257542 4.08016278 9.032879 5 14 C5.66 13.67 6.32 13.34 7 13 C7.68707555 15.49064888 8 17.37886292 8 20 C8.20625 20.845625 8.4125 21.69125 8.625 22.5625 C8.74875 23.366875 8.8725 24.17125 9 25 C8.34 25.66 7.68 26.32 7 27 C7 28.155 7 29.31 7 30.5 C7 31.655 7 32.81 7 34 C6.34 34.66 5.68 35.32 5 36 C4.505 33.525 4.505 33.525 4 31 C3.34 31 2.68 31 2 31 C2 30.01 2 29.02 2 28 C1.01 28 0.02 28 -1 28 C-1.33 28.66 -1.66 29.32 -2 30 C-2.66 30.33 -3.32 30.66 -4 31 C-8.55555556 29.44444444 -8.55555556 29.44444444 -10 28 C-10.25 25.625 -10.25 25.625 -10 23 C-8.5 21.375 -8.5 21.375 -7 20 C-7 19.01 -7 18.02 -7 17 C-7.66 18.32 -8.32 19.64 -9 21 C-10.32 20.34 -11.64 19.68 -13 19 C-12.855625 19.53625 -12.71125 20.0725 -12.5625 20.625 C-12 23 -12 23 -11.5625 26 C-11.16910545 28.92173399 -11.16910545 28.92173399 -9.9375 31 C-8.66506052 33.71453756 -8.86559829 36.04316249 -9 39 C-9.99 38.67 -10.98 38.34 -12 38 C-12.495 40.475 -12.495 40.475 -13 43 C-13.99 42.67 -14.98 42.34 -16 42 C-16.99 43.98 -17.98 45.96 -19 48 C-18.01 47.505 -18.01 47.505 -17 47 C-17 47.99 -17 48.98 -17 50 C-18.485 50.495 -18.485 50.495 -20 51 C-21 50 -21 50 -21.125 47.0625 C-21 44 -21 44 -20 42 C-19.34 42 -18.68 42 -18 42 C-17.09624347 35.67370431 -17.09624347 30.32629569 -18 24 C-18.99 24 -19.98 24 -21 24 C-21 21.36 -21 18.72 -21 16 C-17.25 14.875 -17.25 14.875 -15 16 C-14.95101563 15.38511719 -14.90203125 14.77023437 -14.8515625 14.13671875 C-14.77679687 13.32847656 -14.70203125 12.52023437 -14.625 11.6875 C-14.55539063 10.88699219 -14.48578125 10.08648437 -14.4140625 9.26171875 C-14 7 -14 7 -12 4 C-11.34 4 -10.68 4 -10 4 C-10 3.34 -10 2.68 -10 2 C-6.60929907 -0.08658519 -3.95063669 -0.5883927 0 0 Z " fill="#E9D55F" transform="translate(21,1)"/>
<path d="M0 0 C2.83187553 2.83187553 3.41788129 6.14622678 4 10 C3.625 13 3.625 13 3 15 C1.68 14.34 0.36 13.68 -1 13 C-0.7834375 13.804375 -0.7834375 13.804375 -0.5625 14.625 C0 17 0 17 0.4375 20 C0.83089455 22.92173399 0.83089455 22.92173399 2.0625 25 C3.33493948 27.71453756 3.13440171 30.04316249 3 33 C2.01 32.67 1.02 32.34 0 32 C-0.495 34.475 -0.495 34.475 -1 37 C-1.99 36.67 -2.98 36.34 -4 36 C-4.99 37.98 -5.98 39.96 -7 42 C-6.01 41.505 -6.01 41.505 -5 41 C-5 41.99 -5 42.98 -5 44 C-6.485 44.495 -6.485 44.495 -8 45 C-9 44 -9 44 -9.125 41.0625 C-9 38 -9 38 -8 36 C-7.34 36 -6.68 36 -6 36 C-5.09624347 29.67370431 -5.09624347 24.32629569 -6 18 C-6.99 18 -7.98 18 -9 18 C-9 15.36 -9 12.72 -9 10 C-5.25 8.875 -5.25 8.875 -3 10 C-2.95101563 9.36191406 -2.90203125 8.72382813 -2.8515625 8.06640625 C-2.77679687 7.24011719 -2.70203125 6.41382813 -2.625 5.5625 C-2.55539063 4.73878906 -2.48578125 3.91507813 -2.4140625 3.06640625 C-2.27742187 2.38449219 -2.14078125 1.70257813 -2 1 C-1.34 0.67 -0.68 0.34 0 0 Z " fill="#D5C0B8" transform="translate(9,7)"/>
<path d="M0 0 C2.31 0.33 4.62 0.66 7 1 C7.66 3.97 8.32 6.94 9 10 C10.32 10.33 11.64 10.66 13 11 C13 9.35 13 7.7 13 6 C14.32 6.66 15.64 7.32 17 8 C16.125 12.875 16.125 12.875 15 14 C15.020625 15.134375 15.04125 16.26875 15.0625 17.4375 C15 21 15 21 13 23 C12.67 21.35 12.34 19.7 12 18 C11.34 18 10.68 18 10 18 C10 17.01 10 16.02 10 15 C9.01 15 8.02 15 7 15 C6.67 15.66 6.34 16.32 6 17 C5.34 17.33 4.68 17.66 4 18 C-0.55555556 16.44444444 -0.55555556 16.44444444 -2 15 C-2.25 12.625 -2.25 12.625 -2 10 C-1.484375 9.54625 -0.96875 9.0925 -0.4375 8.625 C0.036875 8.08875 0.51125 7.5525 1 7 C0.76522801 3.35458155 0.76522801 3.35458155 0 0 Z " fill="#F4CBD0" transform="translate(13,14)"/>
<path d="M0 0 C0.66 0.33 1.32 0.66 2 1 C1.42655063 3.86724686 1.1385485 4.8614515 -1 7 C-1.16687448 9.58354218 -1.16687448 9.58354218 -1 12 C1.32854463 13.19838209 1.32854463 13.19838209 4 14 C4.99 13.34 5.98 12.68 7 12 C7.99 12 8.98 12 10 12 C10 12.99 10 13.98 10 15 C10.66 15 11.32 15 12 15 C12.66 15.66 13.32 16.32 14 17 C14 15.02 14 13.04 14 11 C14.66 11.33 15.32 11.66 16 12 C16.75 15.4375 16.75 15.4375 17 19 C16.34 19.66 15.68 20.32 15 21 C14.01 21 13.02 21 12 21 C11.67 23.31 11.34 25.62 11 28 C10.34 27.34 9.68 26.68 9 26 C9.375 22.875 9.375 22.875 10 20 C9.34 20 8.68 20 8 20 C7.67 19.67 7.34 19.34 7 19 C7 19.99 7 20.98 7 22 C6.34 22 5.68 22 5 22 C4.67 23.65 4.34 25.3 4 27 C3.34 27 2.68 27 2 27 C2 23.37 2 19.74 2 16 C0.68 16 -0.64 16 -2 16 C-3.85776765 12.86501708 -4.20140476 10.62528568 -4 7 C-4.66 6.67 -5.32 6.34 -6 6 C-5.67 5.01 -5.34 4.02 -5 3 C-4.34 3 -3.68 3 -3 3 C-2.67 2.34 -2.34 1.68 -2 1 C-1.67 1.99 -1.34 2.98 -1 4 C-0.67 2.68 -0.34 1.36 0 0 Z " fill="#AF4C64" transform="translate(13,17)"/>
<path d="M0 0 C3.50946859 1.16982286 4.46466272 2.55850169 6.21484375 5.74609375 C7.71201226 10.04393568 7.29201537 14.51431945 7 19 C0.25 23 0.25 23 -2 23 C-2 22.34 -2 21.68 -2 21 C-0.68 20.67 0.64 20.34 2 20 C0.86695008 16.60085025 -0.12518475 15.94745549 -3 14 C-2.67 13.34 -2.34 12.68 -2 12 C-2.185625 11.4225 -2.37125 10.845 -2.5625 10.25 C-3.29163773 6.50014881 -1.66580094 3.33160187 0 0 Z " fill="#EF668B" transform="translate(25,38)"/>
<path d="M0 0 C4.75 1.875 4.75 1.875 7 3 C7 3.66 7 4.32 7 5 C5.68 5.33 4.36 5.66 3 6 C3 7.65 3 9.3 3 11 C-1.95 11 -6.9 11 -12 11 C-12 9.02 -12 7.04 -12 5 C-12.66 4.67 -13.32 4.34 -14 4 C-11.69 4.33 -9.38 4.66 -7 5 C-7 4.01 -7 3.02 -7 2 C-4.5625 2.375 -4.5625 2.375 -2 3 C-1.67 3.66 -1.34 4.32 -1 5 C-0.67 3.35 -0.34 1.7 0 0 Z " fill="#985473" transform="translate(20,53)"/>
<path d="M0 0 C1.32 0.33 2.64 0.66 4 1 C3.67 4.63 3.34 8.26 3 12 C3.33 10.35 3.66 8.7 4 7 C5.32 7 6.64 7 8 7 C7.67 4.69 7.34 2.38 7 0 C9 3 9 3 9 5 C9.99 4.67 10.98 4.34 12 4 C11.85691406 4.99580078 11.85691406 4.99580078 11.7109375 6.01171875 C10.79684678 12.71645525 10.79684678 12.71645525 13 19 C12.01 18.67 11.02 18.34 10 18 C8.8125 15.4375 8.8125 15.4375 8 13 C7.01 13.495 7.01 13.495 6 14 C6.7425 14.928125 6.7425 14.928125 7.5 15.875 C9 18 9 18 9 20 C5.34683329 18.75023244 4.21934164 18.32901247 2 15 C1.62109375 12.1875 1.62109375 12.1875 1.4375 9 C1.24004348 5.71174441 1.04453664 3.13360991 0 0 Z " fill="#F56986" transform="translate(12,32)"/>
<path d="M0 0 C0.66 0.66 1.32 1.32 2 2 C1.67 2.99 1.34 3.98 1 5 C-0.32 4.34 -1.64 3.68 -3 3 C-3 3.66 -3 4.32 -3 5 C-3.66 5.66 -4.32 6.32 -5 7 C-5 7.66 -5 8.32 -5 9 C-6.32 9 -7.64 9 -9 9 C-8.34 10.32 -7.68 11.64 -7 13 C-7.99 14.485 -7.99 14.485 -9 16 C-9.50559908 14.56445975 -10.0042749 13.1264798 -10.5 11.6875 C-10.7784375 10.88699219 -11.056875 10.08648437 -11.34375 9.26171875 C-12 7 -12 7 -12 4 C-11.34 4 -10.68 4 -10 4 C-10 3.34 -10 2.68 -10 2 C-6.60535554 -0.08901197 -3.95158471 -0.34361606 0 0 Z " fill="#DBC759" transform="translate(21,1)"/>
<path d="M0 0 C0.33 0 0.66 0 1 0 C1 1.65 1 3.3 1 5 C1.66 4.67 2.32 4.34 3 4 C3.65213292 1.97536745 3.65213292 1.97536745 4 0 C5.32 0.66 6.64 1.32 8 2 C7.34 2 6.68 2 6 2 C6 3.32 6 4.64 6 6 C6.66 6 7.32 6 8 6 C8 6.99 8 7.98 8 9 C7.34 9 6.68 9 6 9 C6 9.99 6 10.98 6 12 C5.01 12 4.02 12 3 12 C3 11.01 3 10.02 3 9 C2.401875 9.33 1.80375 9.66 1.1875 10 C-1 11 -1 11 -4 11 C-3.71125 10.484375 -3.4225 9.96875 -3.125 9.4375 C-1.71219973 6.37643275 -0.8751483 3.25055082 0 0 Z " fill="#F7718B" transform="translate(5,39)"/>
<path d="M0 0 C0.66 0.99 1.32 1.98 2 3 C0.79618552 5.49361571 -0.45428722 7.68143083 -2 10 C-2.45139459 12.0492094 -2.45139459 12.0492094 -2.625 14.1875 C-2.74875 15.445625 -2.8725 16.70375 -3 18 C-3.33 18 -3.66 18 -4 18 C-4 16.35 -4 14.7 -4 13 C-4.99 13 -5.98 13 -7 13 C-7 10.36 -7 7.72 -7 5 C-3.25 3.875 -3.25 3.875 -1 5 C-0.67 3.35 -0.34 1.7 0 0 Z " fill="#BDAF74" transform="translate(7,12)"/>
<path d="M0 0 C0.33 0 0.66 0 1 0 C1.34179688 2.97851562 1.34179688 2.97851562 1.68359375 5.95703125 C1.97170735 8.19396393 1.97170735 8.19396393 3 11 C3.99 11 4.98 11 6 11 C6.33 13.31 6.66 15.62 7 18 C6.67 17.34 6.34 16.68 6 16 C3.47266765 15.34444881 3.47266765 15.34444881 1 15 C0.67 12.03 0.34 9.06 0 6 C-1.65 6.33 -3.3 6.66 -5 7 C-5.33 6.34 -5.66 5.68 -6 5 C-5.38125 4.731875 -4.7625 4.46375 -4.125 4.1875 C-1.7004767 3.04443152 -1.7004767 3.04443152 0 0 Z " fill="#C2AB76" transform="translate(20,9)"/>
<path d="M0 0 C4.75 1.875 4.75 1.875 7 3 C7 3.66 7 4.32 7 5 C5.68 5.33 4.36 5.66 3 6 C3 7.65 3 9.3 3 11 C1.35 11 -0.3 11 -2 11 C-2.24042276 6.91281305 -1.42258812 3.82320557 0 0 Z " fill="#965A7C" transform="translate(20,53)"/>
<path d="M0 0 C0.61875 0.66 1.2375 1.32 1.875 2 C3.75637427 4.2284549 3.75637427 4.2284549 6 4 C5.875 6.3125 5.875 6.3125 5 9 C0.13793103 12 0.13793103 12 -3 12 C-3 11.34 -3 10.68 -3 10 C-1.68 9.67 -0.36 9.34 1 9 C-0.13304992 5.60085025 -1.12518475 4.94745549 -4 3 C-3.67 2.34 -3.34 1.68 -3 1 C-2.01 1.33 -1.02 1.66 0 2 C0 1.34 0 0.68 0 0 Z " fill="#D76878" transform="translate(26,49)"/>
<path d="M0 0 C3.63 1.32 7.26 2.64 11 4 C11 4.66 11 5.32 11 6 C10.01 6.33 9.02 6.66 8 7 C8 7.66 8 8.32 8 9 C2.25 7.25 2.25 7.25 0 5 C0 3.35 0 1.7 0 0 Z " fill="#E9586B" transform="translate(0,51)"/>
<path d="M0 0 C2.83187553 2.83187553 3.41788129 6.14622678 4 10 C3.625 13 3.625 13 3 15 C2.01 14.34 1.02 13.68 0 13 C-0.1875 10.375 -0.1875 10.375 0 8 C-0.66 7.67 -1.32 7.34 -2 7 C-2 5.02 -2 3.04 -2 1 C-1.34 0.67 -0.68 0.34 0 0 Z " fill="#FCEC98" transform="translate(9,7)"/>
<path d="M0 0 C0 2.31 0 4.62 0 7 C-3.62326739 8.2077558 -4.64146369 7.54311128 -8 6 C-7.75 4.125 -7.75 4.125 -7 2 C-4.41847698 0.27898465 -3.15081975 0 0 0 Z " fill="#E7BDC4" transform="translate(20,24)"/>
<path d="M0 0 C2 3 2 3 2 5 C2.99 4.67 3.98 4.34 5 4 C4.90460937 4.66386719 4.80921875 5.32773437 4.7109375 6.01171875 C3.79684678 12.71645525 3.79684678 12.71645525 6 19 C3 18 3 18 1.3125 15.125 C-0.64870143 10.23221102 -0.25291818 5.180139 0 0 Z " fill="#E04564" transform="translate(19,32)"/>
<path d="M0 0 C0.66 0.33 1.32 0.66 2 1 C2.75 4.4375 2.75 4.4375 3 8 C2.34 8.66 1.68 9.32 1 10 C0.01 10 -0.98 10 -2 10 C-2.33 12.31 -2.66 14.62 -3 17 C-3.66 16.34 -4.32 15.68 -5 15 C-4.9765625 12.6171875 -4.9765625 12.6171875 -4.625 9.875 C-4.51414062 8.96492188 -4.40328125 8.05484375 -4.2890625 7.1171875 C-4.19367187 6.41851562 -4.09828125 5.71984375 -4 5 C-2.02 5.495 -2.02 5.495 0 6 C0 4.02 0 2.04 0 0 Z " fill="#7D5062" transform="translate(27,28)"/>
<path d="M0 0 C2.73050362 2.73050362 2.4613484 4.62984574 2.75 8.4375 C2.84796875 9.59121094 2.9459375 10.74492188 3.046875 11.93359375 C3 15 3 15 1 18 C0 15 0 15 1 12 C0.01 12.33 -0.98 12.66 -2 13 C-1.649375 12.13375 -1.29875 11.2675 -0.9375 10.375 C0.07218612 6.74012995 -0.23894772 4.63613865 -1 1 C-0.67 0.67 -0.34 0.34 0 0 Z " fill="#CE5073" transform="translate(12,33)"/>
<path d="M0 0 C0.66 0 1.32 0 2 0 C1.69106068 1.6256807 1.3777305 3.25052748 1.0625 4.875 C0.88847656 5.77992187 0.71445313 6.68484375 0.53515625 7.6171875 C0 10 0 10 -1 12 C-0.67 12.99 -0.34 13.98 0 15 C-0.99 15.33 -1.98 15.66 -3 16 C-4 15 -4 15 -4.125 12.0625 C-4 9 -4 9 -3 7 C-2.34 7 -1.68 7 -1 7 C-0.67 4.69 -0.34 2.38 0 0 Z " fill="#F7EEF2" transform="translate(4,36)"/>
<path d="M0 0 C0.99 0.33 1.98 0.66 3 1 C3.33 2.65 3.66 4.3 4 6 C1 8 1 8 -1.125 7.8125 C-1.74375 7.544375 -2.3625 7.27625 -3 7 C-3.33 6.01 -3.66 5.02 -4 4 C-2.68 4 -1.36 4 0 4 C-0.33 3.01 -0.66 2.02 -1 1 C-0.67 0.67 -0.34 0.34 0 0 Z " fill="#FDE3BC" transform="translate(16,6)"/>
<path d="M0 0 C0.66 0.33 1.32 0.66 2 1 C1.65120368 4.25543229 0.97866739 5.01873107 -1.5625 7.25 C-2.7690625 8.11625 -2.7690625 8.11625 -4 9 C-4 8.34 -4 7.68 -4 7 C-4.66 6.67 -5.32 6.34 -6 6 C-5.67 5.01 -5.34 4.02 -5 3 C-4.34 3 -3.68 3 -3 3 C-2.67 2.34 -2.34 1.68 -2 1 C-1.67 1.99 -1.34 2.98 -1 4 C-0.67 2.68 -0.34 1.36 0 0 Z " fill="#BDAB69" transform="translate(13,17)"/>
<path d="M0 0 C0.33 0 0.66 0 1 0 C1 1.65 1 3.3 1 5 C1.66 5 2.32 5 3 5 C2.3125 7.4375 2.3125 7.4375 1 10 C-1.625 10.8125 -1.625 10.8125 -4 11 C-3.71125 10.484375 -3.4225 9.96875 -3.125 9.4375 C-1.71219973 6.37643275 -0.8751483 3.25055082 0 0 Z " fill="#B48C9B" transform="translate(5,39)"/>
<path d="M0 0 C0.66 0 1.32 0 2 0 C2.33 1.98 2.66 3.96 3 6 C2.01 5.67 1.02 5.34 0 5 C-0.33 6.65 -0.66 8.3 -1 10 C-1.66 10 -2.32 10 -3 10 C-2.39009109 6.44219804 -1.4216319 3.3171411 0 0 Z " fill="#FBDED4" transform="translate(9,34)"/>
<path d="M0 0 C0.99 0 1.98 0 3 0 C3 0.99 3 1.98 3 3 C3.66 3 4.32 3 5 3 C4.34 4.65 3.68 6.3 3 8 C2.34 8 1.68 8 1 8 C0.67 6.35 0.34 4.7 0 3 C-0.66 3 -1.32 3 -2 3 C-1 1 -1 1 0 0 Z " fill="#AF5C69" transform="translate(20,29)"/>
<path d="M0 0 C1.32 0 2.64 0 4 0 C4.66 1.32 5.32 2.64 6 4 C5.34 4.66 4.68 5.32 4 6 C2.68 6 1.36 6 0 6 C0 4.02 0 2.04 0 0 Z " fill="#E5D26F" transform="translate(23,14)"/>
<path d="M0 0 C4.42679007 1.47559669 4.91432696 3.90057368 7 8 C7 8.66 7 9.32 7 10 C6.34 10 5.68 10 5 10 C3.7109375 8.57421875 3.7109375 8.57421875 2.375 6.6875 C1.92898437 6.07261719 1.48296875 5.45773438 1.0234375 4.82421875 C0 3 0 3 0 0 Z " fill="#FBFBFB" transform="translate(25,38)"/>
<path d="M0 0 C4.75 1.875 4.75 1.875 7 3 C7 3.66 7 4.32 7 5 C3.98968256 5.93423645 3.13349732 6.04449911 0 5 C0 3.35 0 1.7 0 0 Z " fill="#BF3C51" transform="translate(20,53)"/>
<path d="M0 0 C1.32 0 2.64 0 4 0 C4.33 2.31 4.66 4.62 5 7 C4.67 6.34 4.34 5.68 4 5 C2.68 5 1.36 5 0 5 C0 3.35 0 1.7 0 0 Z " fill="#C4A593" transform="translate(22,20)"/>
<path d="M0 0 C0.33 1.32 0.66 2.64 1 4 C-5.75 8 -5.75 8 -8 8 C-8 7.34 -8 6.68 -8 6 C-7.360625 5.87625 -6.72125 5.7525 -6.0625 5.625 C-5.381875 5.41875 -4.70125 5.2125 -4 5 C-3.67 4.34 -3.34 3.68 -3 3 C-2.01979625 1.9805881 -1.02196992 0.97753644 0 0 Z " fill="#F7F7F7" transform="translate(31,53)"/>
<path d="M0 0 C2.375 0.1875 2.375 0.1875 5 1 C6.3125 3.5625 6.3125 3.5625 7 6 C2.32307692 4.52307692 2.32307692 4.52307692 0.6875 1.875 C0.460625 1.25625 0.23375 0.6375 0 0 Z " fill="#E55F79" transform="translate(14,46)"/>
<path d="M0 0 C1.65 0 3.3 0 5 0 C5 1.65 5 3.3 5 5 C3.35 4.67 1.7 4.34 0 4 C0 2.68 0 1.36 0 0 Z " fill="#4A393C" transform="translate(13,59)"/>
<path d="M0 0 C2 3 2 3 2 5 C2.99 4.67 3.98 4.34 5 4 C4.67 6.31 4.34 8.62 4 11 C0.85041169 7.57653445 0.43820891 4.55737263 0 0 Z " fill="#EB6495" transform="translate(19,32)"/>
<path d="M0 0 C0.99 0 1.98 0 3 0 C3 1.65 3 3.3 3 5 C2.01 5.495 2.01 5.495 1 6 C0.01 5.01 -0.98 4.02 -2 3 C-1.34 2.01 -0.68 1.02 0 0 Z " fill="#C44B58" transform="translate(29,48)"/>
<path d="M0 0 C0.66 0 1.32 0 2 0 C2.625 3.375 2.625 3.375 3 7 C2.34 7.66 1.68 8.32 1 9 C0.67 7.35 0.34 5.7 0 4 C-0.66 4 -1.32 4 -2 4 C-1 1 -1 1 0 0 Z " fill="#FCF2D9" transform="translate(25,28)"/>
<path d="M0 0 C1.98 0.99 1.98 0.99 4 2 C3.625 4.4375 3.625 4.4375 3 7 C2.01 7.495 2.01 7.495 1 8 C0.67 5.36 0.34 2.72 0 0 Z " fill="#FEFDFC" transform="translate(26,20)"/>
<path d="M0 0 C0.66 0.99 1.32 1.98 2 3 C0.84826645 5.46800047 -0.04783565 7.04783565 -2 9 C-2.33 7.68 -2.66 6.36 -3 5 C-2.34 5 -1.68 5 -1 5 C-0.67 3.35 -0.34 1.7 0 0 Z " fill="#DFCA69" transform="translate(7,12)"/>
<path d="M0 0 C1.65 1.65 3.3 3.3 5 5 C4.34 5.66 3.68 6.32 3 7 C2.01 7 1.02 7 0 7 C0 4.69 0 2.38 0 0 Z " fill="#9D4D5C" transform="translate(25,41)"/>
<path d="M0 0 C0.99 0.495 0.99 0.495 2 1 C2.40729228 3.32156597 2.74438677 5.6568787 3 8 C2.01 8.66 1.02 9.32 0 10 C0 6.7 0 3.4 0 0 Z " fill="#000000" transform="translate(27,28)"/>
<path d="M0 0 C1.65 0.33 3.3 0.66 5 1 C5 1.66 5 2.32 5 3 C3.02 3.33 1.04 3.66 -1 4 C-0.67 2.68 -0.34 1.36 0 0 Z " fill="#E23C57" transform="translate(13,55)"/>
<path d="M0 0 C0 1.65 0 3.3 0 5 C-0.33 4.34 -0.66 3.68 -1 3 C-2.65 3.66 -4.3 4.32 -6 5 C-6.33 4.01 -6.66 3.02 -7 2 C-4.35261084 0.5393715 -3.10551666 0 0 0 Z " fill="#C794AE" transform="translate(20,24)"/>
<path d="M0 0 C1.32 0.33 2.64 0.66 4 1 C4 1.66 4 2.32 4 3 C5.32 3.33 6.64 3.66 8 4 C8 4.66 8 5.32 8 6 C2.33846154 4.52307692 2.33846154 4.52307692 0.625 1.875 C0.41875 1.25625 0.2125 0.6375 0 0 Z " fill="#F6F4F4" transform="translate(0,54)"/>
<path d="M0 0 C1.5 1.1875 1.5 1.1875 3 3 C3.1875 5.6875 3.1875 5.6875 3 8 C-0.875 3.25 -0.875 3.25 -2 1 C-1.34 0.67 -0.68 0.34 0 0 Z " fill="#F86897" transform="translate(19,44)"/>
<path d="M0 0 C2.97 0.495 2.97 0.495 6 1 C5.67 2.65 5.34 4.3 5 6 C2.5 4.6875 2.5 4.6875 0 3 C0 2.01 0 1.02 0 0 Z " fill="#FADFCF" transform="translate(13,14)"/>
</svg>
